<svg width="251" height="96" viewBox="0 0 251 96" fill="none" xmlns="http://www.w3.org/2000/svg">
<g filter="url(#filter0_dd_4_181)">
<path d="M18 33C18 16.4315 31.4315 3 48 3H203C219.569 3 233 16.4315 233 33C233 49.5685 219.569 63 203 63H48C31.4315 63 18 49.5685 18 33Z" fill="#EFF9FF"/>
<path d="M48 3.75H203C219.154 3.75 232.25 16.8457 232.25 33C232.25 49.1543 219.154 62.25 203 62.25H48C31.8457 62.25 18.75 49.1543 18.75 33C18.75 16.8457 31.8457 3.75 48 3.75Z" stroke="#00A6F4" stroke-width="1.5"/>
<path d="M44.1136 24.5455H46.6364L52.5682 39.0341H52.7727L58.7045 24.5455H61.2273V42H59.25V28.7386H59.0795L53.625 42H51.7159L46.2614 28.7386H46.0909V42H44.1136V24.5455ZM66.4879 46.9091C66.147 46.9091 65.843 46.8807 65.576 46.8239C65.3089 46.7727 65.1243 46.7216 65.022 46.6705L65.5334 44.8977C66.022 45.0227 66.4538 45.0682 66.8288 45.0341C67.2038 45 67.5362 44.8324 67.826 44.5312C68.1214 44.2358 68.3913 43.7557 68.6357 43.0909L69.0107 42.0682L64.1697 28.9091H66.3516L69.9652 39.3409H70.1016L73.7152 28.9091H75.897L70.3402 43.9091C70.0902 44.5852 69.7805 45.1449 69.4112 45.5881C69.0419 46.0369 68.6129 46.3693 68.1243 46.5852C67.6413 46.8011 67.0959 46.9091 66.4879 46.9091ZM90.7905 42.2727C89.5291 42.2727 88.4411 41.9943 87.5263 41.4375C86.6172 40.875 85.9155 40.0909 85.4212 39.0852C84.9325 38.0739 84.6882 36.8977 84.6882 35.5568C84.6882 34.2159 84.9325 33.0341 85.4212 32.0114C85.9155 30.983 86.603 30.1818 87.4837 29.608C88.37 29.0284 89.4041 28.7386 90.5859 28.7386C91.2678 28.7386 91.9411 28.8523 92.6058 29.0795C93.2706 29.3068 93.8757 29.6761 94.4212 30.1875C94.9666 30.6932 95.4013 31.3636 95.7251 32.1989C96.049 33.0341 96.2109 34.0625 96.2109 35.2841V36.1364H86.12V34.3977H94.1655C94.1655 33.6591 94.0178 33 93.7223 32.4205C93.4325 31.8409 93.0178 31.3835 92.478 31.0483C91.9439 30.7131 91.3132 30.5455 90.5859 30.5455C89.7848 30.5455 89.0916 30.7443 88.5064 31.142C87.9268 31.5341 87.4808 32.0455 87.1683 32.6761C86.8558 33.3068 86.6996 33.983 86.6996 34.7045V35.8636C86.6996 36.8523 86.87 37.6903 87.2109 38.3778C87.5575 39.0597 88.0376 39.5795 88.6513 39.9375C89.2649 40.2898 89.978 40.4659 90.7905 40.4659C91.3189 40.4659 91.7962 40.392 92.2223 40.2443C92.6541 40.0909 93.0263 39.8636 93.3388 39.5625C93.6513 39.2557 93.8928 38.875 94.0632 38.4205L96.0064 38.9659C95.8018 39.625 95.4581 40.2045 94.9751 40.7045C94.4922 41.1989 93.8956 41.5852 93.1854 41.8636C92.4751 42.1364 91.6768 42.2727 90.7905 42.2727ZM100.419 28.9091L103.555 34.2614L106.692 28.9091H109.01L104.783 35.4545L109.01 42H106.692L103.555 36.9205L100.419 42H98.1009L102.26 35.4545L98.1009 28.9091H100.419ZM111.88 46.9091V28.9091H113.823V30.9886H114.062C114.21 30.7614 114.414 30.4716 114.675 30.1193C114.942 29.7614 115.323 29.4432 115.817 29.1648C116.317 28.8807 116.994 28.7386 117.846 28.7386C118.948 28.7386 119.92 29.0142 120.761 29.5653C121.602 30.1165 122.258 30.8977 122.729 31.9091C123.201 32.9205 123.437 34.1136 123.437 35.4886C123.437 36.875 123.201 38.0767 122.729 39.0938C122.258 40.1051 121.604 40.8892 120.769 41.446C119.934 41.9972 118.971 42.2727 117.88 42.2727C117.039 42.2727 116.366 42.1335 115.86 41.8551C115.354 41.571 114.965 41.25 114.692 40.892C114.42 40.5284 114.21 40.2273 114.062 39.9886H113.891V46.9091H111.88ZM113.857 35.4545C113.857 36.4432 114.002 37.3153 114.292 38.071C114.582 38.821 115.005 39.4091 115.562 39.8352C116.119 40.2557 116.8 40.4659 117.607 40.4659C118.448 40.4659 119.15 40.2443 119.712 39.8011C120.281 39.3523 120.707 38.75 120.991 37.9943C121.281 37.233 121.425 36.3864 121.425 35.4545C121.425 34.5341 121.283 33.7045 120.999 32.9659C120.721 32.2216 120.298 31.6335 119.729 31.2017C119.167 30.7642 118.46 30.5455 117.607 30.5455C116.789 30.5455 116.102 30.7528 115.545 31.1676C114.988 31.5767 114.567 32.1506 114.283 32.8892C113.999 33.6222 113.857 34.4773 113.857 35.4545ZM131.994 42.2727C130.732 42.2727 129.644 41.9943 128.729 41.4375C127.82 40.875 127.119 40.0909 126.624 39.0852C126.136 38.0739 125.891 36.8977 125.891 35.5568C125.891 34.2159 126.136 33.0341 126.624 32.0114C127.119 30.983 127.806 30.1818 128.687 29.608C129.573 29.0284 130.607 28.7386 131.789 28.7386C132.471 28.7386 133.144 28.8523 133.809 29.0795C134.474 29.3068 135.079 29.6761 135.624 30.1875C136.17 30.6932 136.604 31.3636 136.928 32.1989C137.252 33.0341 137.414 34.0625 137.414 35.2841V36.1364H127.323V34.3977H135.369C135.369 33.6591 135.221 33 134.925 32.4205C134.636 31.8409 134.221 31.3835 133.681 31.0483C133.147 30.7131 132.516 30.5455 131.789 30.5455C130.988 30.5455 130.295 30.7443 129.71 31.142C129.13 31.5341 128.684 32.0455 128.371 32.6761C128.059 33.3068 127.903 33.983 127.903 34.7045V35.8636C127.903 36.8523 128.073 37.6903 128.414 38.3778C128.761 39.0597 129.241 39.5795 129.854 39.9375C130.468 40.2898 131.181 40.4659 131.994 40.4659C132.522 40.4659 132.999 40.392 133.425 40.2443C133.857 40.0909 134.229 39.8636 134.542 39.5625C134.854 39.2557 135.096 38.875 135.266 38.4205L137.21 38.9659C137.005 39.625 136.661 40.2045 136.178 40.7045C135.695 41.1989 135.099 41.5852 134.388 41.8636C133.678 42.1364 132.88 42.2727 131.994 42.2727ZM140.474 42V28.9091H142.417V30.8864H142.553C142.792 30.2386 143.224 29.7131 143.849 29.3097C144.474 28.9062 145.178 28.7045 145.962 28.7045C146.11 28.7045 146.295 28.7074 146.516 28.7131C146.738 28.7187 146.906 28.7273 147.019 28.7386V30.7841C146.951 30.767 146.795 30.7415 146.55 30.7074C146.312 30.6676 146.059 30.6477 145.792 30.6477C145.156 30.6477 144.587 30.7812 144.087 31.0483C143.593 31.3097 143.201 31.6733 142.911 32.1392C142.627 32.5994 142.485 33.125 142.485 33.7159V42H140.474ZM149.403 42V28.9091H151.415V42H149.403ZM150.426 26.7273C150.034 26.7273 149.696 26.5938 149.412 26.3267C149.134 26.0597 148.994 25.7386 148.994 25.3636C148.994 24.9886 149.134 24.6676 149.412 24.4006C149.696 24.1335 150.034 24 150.426 24C150.818 24 151.153 24.1335 151.432 24.4006C151.716 24.6676 151.858 24.9886 151.858 25.3636C151.858 25.7386 151.716 26.0597 151.432 26.3267C151.153 26.5938 150.818 26.7273 150.426 26.7273ZM160.587 42.2727C159.326 42.2727 158.238 41.9943 157.323 41.4375C156.414 40.875 155.712 40.0909 155.218 39.0852C154.729 38.0739 154.485 36.8977 154.485 35.5568C154.485 34.2159 154.729 33.0341 155.218 32.0114C155.712 30.983 156.4 30.1818 157.281 29.608C158.167 29.0284 159.201 28.7386 160.383 28.7386C161.065 28.7386 161.738 28.8523 162.403 29.0795C163.067 29.3068 163.673 29.6761 164.218 30.1875C164.763 30.6932 165.198 31.3636 165.522 32.1989C165.846 33.0341 166.008 34.0625 166.008 35.2841V36.1364H155.917V34.3977H163.962C163.962 33.6591 163.815 33 163.519 32.4205C163.229 31.8409 162.815 31.3835 162.275 31.0483C161.741 30.7131 161.11 30.5455 160.383 30.5455C159.582 30.5455 158.888 30.7443 158.303 31.142C157.724 31.5341 157.278 32.0455 156.965 32.6761C156.653 33.3068 156.496 33.983 156.496 34.7045V35.8636C156.496 36.8523 156.667 37.6903 157.008 38.3778C157.354 39.0597 157.835 39.5795 158.448 39.9375C159.062 40.2898 159.775 40.4659 160.587 40.4659C161.116 40.4659 161.593 40.392 162.019 40.2443C162.451 40.0909 162.823 39.8636 163.136 39.5625C163.448 39.2557 163.69 38.875 163.86 38.4205L165.803 38.9659C165.599 39.625 165.255 40.2045 164.772 40.7045C164.289 41.1989 163.692 41.5852 162.982 41.8636C162.272 42.1364 161.474 42.2727 160.587 42.2727ZM171.079 34.125V42H169.067V28.9091H171.011V30.9545H171.181C171.488 30.2898 171.954 29.7557 172.579 29.3523C173.204 28.9432 174.011 28.7386 174.999 28.7386C175.886 28.7386 176.661 28.9205 177.326 29.2841C177.991 29.642 178.508 30.1875 178.877 30.9205C179.246 31.6477 179.431 32.5682 179.431 33.6818V42H177.42V33.8182C177.42 32.7898 177.153 31.9886 176.619 31.4148C176.085 30.8352 175.352 30.5455 174.42 30.5455C173.778 30.5455 173.204 30.6847 172.698 30.9631C172.198 31.2415 171.803 31.6477 171.513 32.1818C171.224 32.7159 171.079 33.3636 171.079 34.125ZM188.425 42.2727C187.197 42.2727 186.141 41.983 185.254 41.4034C184.368 40.8239 183.686 40.0256 183.209 39.0085C182.732 37.9915 182.493 36.8295 182.493 35.5227C182.493 34.1932 182.737 33.0199 183.226 32.0028C183.72 30.9801 184.408 30.1818 185.288 29.608C186.175 29.0284 187.209 28.7386 188.391 28.7386C189.311 28.7386 190.141 28.9091 190.879 29.25C191.618 29.5909 192.223 30.0682 192.695 30.6818C193.166 31.2955 193.459 32.0114 193.572 32.8295H191.561C191.408 32.233 191.067 31.7045 190.538 31.2443C190.016 30.7784 189.311 30.5455 188.425 30.5455C187.641 30.5455 186.953 30.75 186.362 31.1591C185.777 31.5625 185.32 32.1335 184.99 32.8722C184.666 33.6051 184.504 34.4659 184.504 35.4545C184.504 36.4659 184.663 37.3466 184.982 38.0966C185.305 38.8466 185.76 39.429 186.345 39.8438C186.936 40.2585 187.629 40.4659 188.425 40.4659C188.947 40.4659 189.422 40.375 189.848 40.1932C190.274 40.0114 190.635 39.75 190.93 39.4091C191.226 39.0682 191.436 38.6591 191.561 38.1818H193.572C193.459 38.9545 193.178 39.6506 192.729 40.2699C192.286 40.8835 191.697 41.3722 190.964 41.7358C190.237 42.0938 189.391 42.2727 188.425 42.2727ZM202.001 42.2727C200.74 42.2727 199.652 41.9943 198.737 41.4375C197.828 40.875 197.126 40.0909 196.632 39.0852C196.143 38.0739 195.899 36.8977 195.899 35.5568C195.899 34.2159 196.143 33.0341 196.632 32.0114C197.126 30.983 197.814 30.1818 198.695 29.608C199.581 29.0284 200.615 28.7386 201.797 28.7386C202.479 28.7386 203.152 28.8523 203.817 29.0795C204.482 29.3068 205.087 29.6761 205.632 30.1875C206.178 30.6932 206.612 31.3636 206.936 32.1989C207.26 33.0341 207.422 34.0625 207.422 35.2841V36.1364H197.331V34.3977H205.376C205.376 33.6591 205.229 33 204.933 32.4205C204.643 31.8409 204.229 31.3835 203.689 31.0483C203.155 30.7131 202.524 30.5455 201.797 30.5455C200.996 30.5455 200.303 30.7443 199.717 31.142C199.138 31.5341 198.692 32.0455 198.379 32.6761C198.067 33.3068 197.911 33.983 197.911 34.7045V35.8636C197.911 36.8523 198.081 37.6903 198.422 38.3778C198.768 39.0597 199.249 39.5795 199.862 39.9375C200.476 40.2898 201.189 40.4659 202.001 40.4659C202.53 40.4659 203.007 40.392 203.433 40.2443C203.865 40.0909 204.237 39.8636 204.55 39.5625C204.862 39.2557 205.104 38.875 205.274 38.4205L207.217 38.9659C207.013 39.625 206.669 40.2045 206.186 40.7045C205.703 41.1989 205.107 41.5852 204.396 41.8636C203.686 42.1364 202.888 42.2727 202.001 42.2727Z" fill="#042F4D"/>
</g>
<defs>
<filter id="filter0_dd_4_181" x="0" y="0" width="251" height="96" filterUnits="userSpaceOnUse" color-interpolation-filters="sRGB">
<feFlood flood-opacity="0" result="BackgroundImageFix"/>
<feColorMatrix in="SourceAlpha" type="matrix" values="0 0 0 0 0 0 0 0 0 0 0 0 0 0 0 0 0 0 127 0" result="hardAlpha"/>
<feMorphology radius="6" operator="erode" in="SourceAlpha" result="effect1_dropShadow_4_181"/>
<feOffset dy="6"/>
<feGaussianBlur stdDeviation="4.5"/>
<feComposite in2="hardAlpha" operator="out"/>
<feColorMatrix type="matrix" values="0 0 0 0 0 0 0 0 0 0 0 0 0 0 0 0 0 0 0.1 0"/>
<feBlend mode="normal" in2="BackgroundImageFix" result="effect1_dropShadow_4_181"/>
<feColorMatrix in="SourceAlpha" type="matrix" values="0 0 0 0 0 0 0 0 0 0 0 0 0 0 0 0 0 0 127 0" result="hardAlpha"/>
<feMorphology radius="4.5" operator="erode" in="SourceAlpha" result="effect2_dropShadow_4_181"/>
<feOffset dy="15"/>
<feGaussianBlur stdDeviation="11.25"/>
<feComposite in2="hardAlpha" operator="out"/>
<feColorMatrix type="matrix" values="0 0 0 0 0 0 0 0 0 0 0 0 0 0 0 0 0 0 0.1 0"/>
<feBlend mode="normal" in2="effect1_dropShadow_4_181" result="effect2_dropShadow_4_181"/>
<feBlend mode="normal" in="SourceGraphic" in2="effect2_dropShadow_4_181" result="shape"/>
</filter>
</defs>
</svg>
