<svg width="218" height="96" viewBox="0 0 218 96" fill="none" xmlns="http://www.w3.org/2000/svg">
<g filter="url(#filter0_dd_4_184)">
<path d="M18 33C18 16.4315 31.4315 3 48 3H170C186.569 3 200 16.4315 200 33C200 49.5685 186.569 63 170 63H48C31.4315 63 18 49.5685 18 33Z" fill="#EFF9FF"/>
<path d="M48 3.75H170C186.154 3.75 199.25 16.8457 199.25 33C199.25 49.1543 186.154 62.25 170 62.25H48C31.8457 62.25 18.75 49.1543 18.75 33C18.75 16.8457 31.8457 3.75 48 3.75Z" stroke="#00A6F4" stroke-width="1.5"/>
<path d="M44.1136 24.5455H46.6364L52.5682 39.0341H52.7727L58.7045 24.5455H61.2273V42H59.25V28.7386H59.0795L53.625 42H51.7159L46.2614 28.7386H46.0909V42H44.1136V24.5455ZM66.4879 46.9091C66.147 46.9091 65.843 46.8807 65.576 46.8239C65.3089 46.7727 65.1243 46.7216 65.022 46.6705L65.5334 44.8977C66.022 45.0227 66.4538 45.0682 66.8288 45.0341C67.2038 45 67.5362 44.8324 67.826 44.5312C68.1214 44.2358 68.3913 43.7557 68.6357 43.0909L69.0107 42.0682L64.1697 28.9091H66.3516L69.9652 39.3409H70.1016L73.7152 28.9091H75.897L70.3402 43.9091C70.0902 44.5852 69.7805 45.1449 69.4112 45.5881C69.0419 46.0369 68.6129 46.3693 68.1243 46.5852C67.6413 46.8011 67.0959 46.9091 66.4879 46.9091ZM85.3018 46.9091V28.9091H87.245V30.9886H87.4837C87.6314 30.7614 87.8359 30.4716 88.0973 30.1193C88.3643 29.7614 88.745 29.4432 89.2393 29.1648C89.7393 28.8807 90.4155 28.7386 91.2678 28.7386C92.37 28.7386 93.3416 29.0142 94.1825 29.5653C95.0234 30.1165 95.6797 30.8977 96.1513 31.9091C96.6229 32.9205 96.8587 34.1136 96.8587 35.4886C96.8587 36.875 96.6229 38.0767 96.1513 39.0938C95.6797 40.1051 95.0263 40.8892 94.1911 41.446C93.3558 41.9972 92.3928 42.2727 91.3018 42.2727C90.4609 42.2727 89.7876 42.1335 89.282 41.8551C88.7763 41.571 88.3871 41.25 88.1143 40.892C87.8416 40.5284 87.6314 40.2273 87.4837 39.9886H87.3132V46.9091H85.3018ZM87.2791 35.4545C87.2791 36.4432 87.424 37.3153 87.7138 38.071C88.0036 38.821 88.4268 39.4091 88.9837 39.8352C89.5405 40.2557 90.2223 40.4659 91.0291 40.4659C91.87 40.4659 92.5717 40.2443 93.1342 39.8011C93.7024 39.3523 94.1286 38.75 94.4126 37.9943C94.7024 37.233 94.8473 36.3864 94.8473 35.4545C94.8473 34.5341 94.7053 33.7045 94.4212 32.9659C94.1428 32.2216 93.7195 31.6335 93.1513 31.2017C92.5888 30.7642 91.8814 30.5455 91.0291 30.5455C90.2109 30.5455 89.5234 30.7528 88.9666 31.1676C88.4098 31.5767 87.9893 32.1506 87.7053 32.8892C87.4212 33.6222 87.2791 34.4773 87.2791 35.4545ZM99.9268 42V28.9091H101.87V30.8864H102.006C102.245 30.2386 102.677 29.7131 103.302 29.3097C103.927 28.9062 104.631 28.7045 105.415 28.7045C105.563 28.7045 105.748 28.7074 105.969 28.7131C106.191 28.7187 106.359 28.7273 106.472 28.7386V30.7841C106.404 30.767 106.248 30.7415 106.004 30.7074C105.765 30.6676 105.512 30.6477 105.245 30.6477C104.609 30.6477 104.04 30.7812 103.54 31.0483C103.046 31.3097 102.654 31.6733 102.364 32.1392C102.08 32.5994 101.938 33.125 101.938 33.7159V42H99.9268ZM113.776 42.2727C112.594 42.2727 111.558 41.9915 110.665 41.429C109.779 40.8665 109.086 40.0795 108.586 39.0682C108.092 38.0568 107.844 36.875 107.844 35.5227C107.844 34.1591 108.092 32.9687 108.586 31.9517C109.086 30.9347 109.779 30.1449 110.665 29.5824C111.558 29.0199 112.594 28.7386 113.776 28.7386C114.958 28.7386 115.992 29.0199 116.879 29.5824C117.771 30.1449 118.464 30.9347 118.958 31.9517C119.458 32.9687 119.708 34.1591 119.708 35.5227C119.708 36.875 119.458 38.0568 118.958 39.0682C118.464 40.0795 117.771 40.8665 116.879 41.429C115.992 41.9915 114.958 42.2727 113.776 42.2727ZM113.776 40.4659C114.674 40.4659 115.413 40.2358 115.992 39.7756C116.572 39.3153 117.001 38.7102 117.279 37.9602C117.558 37.2102 117.697 36.3977 117.697 35.5227C117.697 34.6477 117.558 33.8324 117.279 33.0767C117.001 32.321 116.572 31.7102 115.992 31.2443C115.413 30.7784 114.674 30.5455 113.776 30.5455C112.879 30.5455 112.14 30.7784 111.56 31.2443C110.981 31.7102 110.552 32.321 110.273 33.0767C109.995 33.8324 109.856 34.6477 109.856 35.5227C109.856 36.3977 109.995 37.2102 110.273 37.9602C110.552 38.7102 110.981 39.3153 111.56 39.7756C112.14 40.2358 112.879 40.4659 113.776 40.4659ZM122.778 28.9091H124.79V42.9545C124.79 43.7614 124.651 44.4602 124.372 45.0511C124.099 45.642 123.685 46.0994 123.128 46.4233C122.577 46.7472 121.881 46.9091 121.04 46.9091C120.972 46.9091 120.903 46.9091 120.835 46.9091C120.767 46.9091 120.699 46.9091 120.631 46.9091V45.0341C120.699 45.0341 120.761 45.0341 120.818 45.0341C120.875 45.0341 120.938 45.0341 121.006 45.0341C121.619 45.0341 122.068 44.8523 122.352 44.4886C122.636 44.1307 122.778 43.6193 122.778 42.9545V28.9091ZM123.767 26.7273C123.375 26.7273 123.037 26.5938 122.753 26.3267C122.474 26.0597 122.335 25.7386 122.335 25.3636C122.335 24.9886 122.474 24.6676 122.753 24.4006C123.037 24.1335 123.375 24 123.767 24C124.159 24 124.494 24.1335 124.773 24.4006C125.057 24.6676 125.199 24.9886 125.199 25.3636C125.199 25.7386 125.057 26.0597 124.773 26.3267C124.494 26.5938 124.159 26.7273 123.767 26.7273ZM133.962 42.2727C132.701 42.2727 131.613 41.9943 130.698 41.4375C129.789 40.875 129.087 40.0909 128.593 39.0852C128.104 38.0739 127.86 36.8977 127.86 35.5568C127.86 34.2159 128.104 33.0341 128.593 32.0114C129.087 30.983 129.775 30.1818 130.656 29.608C131.542 29.0284 132.576 28.7386 133.758 28.7386C134.44 28.7386 135.113 28.8523 135.778 29.0795C136.442 29.3068 137.048 29.6761 137.593 30.1875C138.138 30.6932 138.573 31.3636 138.897 32.1989C139.221 33.0341 139.383 34.0625 139.383 35.2841V36.1364H129.292V34.3977H137.337C137.337 33.6591 137.19 33 136.894 32.4205C136.604 31.8409 136.19 31.3835 135.65 31.0483C135.116 30.7131 134.485 30.5455 133.758 30.5455C132.957 30.5455 132.263 30.7443 131.678 31.142C131.099 31.5341 130.653 32.0455 130.34 32.6761C130.028 33.3068 129.871 33.983 129.871 34.7045V35.8636C129.871 36.8523 130.042 37.6903 130.383 38.3778C130.729 39.0597 131.21 39.5795 131.823 39.9375C132.437 40.2898 133.15 40.4659 133.962 40.4659C134.491 40.4659 134.968 40.392 135.394 40.2443C135.826 40.0909 136.198 39.8636 136.511 39.5625C136.823 39.2557 137.065 38.875 137.235 38.4205L139.178 38.9659C138.974 39.625 138.63 40.2045 138.147 40.7045C137.664 41.1989 137.067 41.5852 136.357 41.8636C135.647 42.1364 134.849 42.2727 133.962 42.2727ZM147.761 42.2727C146.533 42.2727 145.477 41.983 144.59 41.4034C143.704 40.8239 143.022 40.0256 142.545 39.0085C142.067 37.9915 141.829 36.8295 141.829 35.5227C141.829 34.1932 142.073 33.0199 142.562 32.0028C143.056 30.9801 143.744 30.1818 144.624 29.608C145.511 29.0284 146.545 28.7386 147.727 28.7386C148.647 28.7386 149.477 28.9091 150.215 29.25C150.954 29.5909 151.559 30.0682 152.031 30.6818C152.502 31.2955 152.795 32.0114 152.908 32.8295H150.897C150.744 32.233 150.403 31.7045 149.874 31.2443C149.352 30.7784 148.647 30.5455 147.761 30.5455C146.977 30.5455 146.289 30.75 145.698 31.1591C145.113 31.5625 144.656 32.1335 144.326 32.8722C144.002 33.6051 143.84 34.4659 143.84 35.4545C143.84 36.4659 143.999 37.3466 144.317 38.0966C144.641 38.8466 145.096 39.429 145.681 39.8438C146.272 40.2585 146.965 40.4659 147.761 40.4659C148.283 40.4659 148.758 40.375 149.184 40.1932C149.61 40.0114 149.971 39.75 150.266 39.4091C150.562 39.0682 150.772 38.6591 150.897 38.1818H152.908C152.795 38.9545 152.513 39.6506 152.065 40.2699C151.621 40.8835 151.033 41.3722 150.3 41.7358C149.573 42.0938 148.727 42.2727 147.761 42.2727ZM161.542 28.9091V30.6136H154.758V28.9091H161.542ZM156.735 25.7727H158.746V38.25C158.746 38.8182 158.829 39.2443 158.994 39.5284C159.164 39.8068 159.38 39.9943 159.641 40.0909C159.908 40.1818 160.19 40.2273 160.485 40.2273C160.707 40.2273 160.888 40.2159 161.031 40.1932C161.173 40.1648 161.286 40.142 161.371 40.125L161.781 41.9318C161.644 41.983 161.454 42.0341 161.21 42.0852C160.965 42.142 160.656 42.1705 160.281 42.1705C159.712 42.1705 159.156 42.0483 158.61 41.804C158.07 41.5597 157.621 41.1875 157.263 40.6875C156.911 40.1875 156.735 39.5568 156.735 38.7955V25.7727ZM173.606 31.8409L171.799 32.3523C171.685 32.0511 171.518 31.7585 171.296 31.4744C171.08 31.1847 170.785 30.946 170.41 30.7585C170.035 30.571 169.555 30.4773 168.969 30.4773C168.168 30.4773 167.501 30.6619 166.967 31.0312C166.438 31.3949 166.174 31.858 166.174 32.4205C166.174 32.9205 166.356 33.3153 166.719 33.6051C167.083 33.8949 167.651 34.1364 168.424 34.3295L170.367 34.8068C171.538 35.0909 172.41 35.5256 172.984 36.1108C173.558 36.6903 173.844 37.4375 173.844 38.3523C173.844 39.1023 173.629 39.7727 173.197 40.3636C172.771 40.9545 172.174 41.4205 171.407 41.7614C170.64 42.1023 169.748 42.2727 168.731 42.2727C167.396 42.2727 166.29 41.983 165.415 41.4034C164.54 40.8239 163.987 39.9773 163.754 38.8636L165.663 38.3864C165.844 39.0909 166.188 39.6193 166.694 39.9716C167.205 40.3239 167.873 40.5 168.697 40.5C169.634 40.5 170.379 40.3011 170.93 39.9034C171.487 39.5 171.765 39.017 171.765 38.4545C171.765 38 171.606 37.6193 171.288 37.3125C170.969 37 170.481 36.767 169.822 36.6136L167.64 36.1023C166.441 35.8182 165.56 35.3778 164.998 34.7812C164.441 34.179 164.163 33.4261 164.163 32.5227C164.163 31.7841 164.37 31.1307 164.785 30.5625C165.205 29.9943 165.776 29.5483 166.498 29.2244C167.225 28.9006 168.049 28.7386 168.969 28.7386C170.265 28.7386 171.282 29.0227 172.021 29.5909C172.765 30.1591 173.293 30.9091 173.606 31.8409Z" fill="#042F4D"/>
</g>
<defs>
<filter id="filter0_dd_4_184" x="0" y="0" width="218" height="96" filterUnits="userSpaceOnUse" color-interpolation-filters="sRGB">
<feFlood flood-opacity="0" result="BackgroundImageFix"/>
<feColorMatrix in="SourceAlpha" type="matrix" values="0 0 0 0 0 0 0 0 0 0 0 0 0 0 0 0 0 0 127 0" result="hardAlpha"/>
<feMorphology radius="6" operator="erode" in="SourceAlpha" result="effect1_dropShadow_4_184"/>
<feOffset dy="6"/>
<feGaussianBlur stdDeviation="4.5"/>
<feComposite in2="hardAlpha" operator="out"/>
<feColorMatrix type="matrix" values="0 0 0 0 0 0 0 0 0 0 0 0 0 0 0 0 0 0 0.1 0"/>
<feBlend mode="normal" in2="BackgroundImageFix" result="effect1_dropShadow_4_184"/>
<feColorMatrix in="SourceAlpha" type="matrix" values="0 0 0 0 0 0 0 0 0 0 0 0 0 0 0 0 0 0 127 0" result="hardAlpha"/>
<feMorphology radius="4.5" operator="erode" in="SourceAlpha" result="effect2_dropShadow_4_184"/>
<feOffset dy="15"/>
<feGaussianBlur stdDeviation="11.25"/>
<feComposite in2="hardAlpha" operator="out"/>
<feColorMatrix type="matrix" values="0 0 0 0 0 0 0 0 0 0 0 0 0 0 0 0 0 0 0.1 0"/>
<feBlend mode="normal" in2="effect1_dropShadow_4_184" result="effect2_dropShadow_4_184"/>
<feBlend mode="normal" in="SourceGraphic" in2="effect2_dropShadow_4_184" result="shape"/>
</filter>
</defs>
</svg>
