<svg width="175" height="96" viewBox="0 0 175 96" fill="none" xmlns="http://www.w3.org/2000/svg">
<g filter="url(#filter0_dd_14_12)">
<path d="M18 33C18 16.4315 31.4315 3 48 3H127C143.569 3 157 16.4315 157 33C157 49.5685 143.569 63 127 63H48C31.4315 63 18 49.5685 18 33Z" fill="#EFF9FF"/>
<path d="M48 3.75H127C143.154 3.75 156.25 16.8457 156.25 33C156.25 49.1543 143.154 62.25 127 62.25H48C31.8457 62.25 18.75 49.1543 18.75 33C18.75 16.8457 31.8457 3.75 48 3.75Z" stroke="#00A6F4" stroke-width="1.5"/>
<path d="M58.1591 30H56.0455C55.9205 29.392 55.7017 28.858 55.3892 28.3977C55.0824 27.9375 54.7074 27.5511 54.2642 27.2386C53.8267 26.9205 53.3409 26.6818 52.8068 26.5227C52.2727 26.3636 51.7159 26.2841 51.1364 26.2841C50.0795 26.2841 49.1222 26.5511 48.2642 27.0852C47.4119 27.6193 46.733 28.4062 46.2273 29.446C45.7273 30.4858 45.4773 31.7614 45.4773 33.2727C45.4773 34.7841 45.7273 36.0597 46.2273 37.0994C46.733 38.1392 47.4119 38.9261 48.2642 39.4602C49.1222 39.9943 50.0795 40.2614 51.1364 40.2614C51.7159 40.2614 52.2727 40.1818 52.8068 40.0227C53.3409 39.8636 53.8267 39.6278 54.2642 39.3153C54.7074 38.9972 55.0824 38.608 55.3892 38.1477C55.7017 37.6818 55.9205 37.1477 56.0455 36.5455H58.1591C58 37.4375 57.7102 38.2358 57.2898 38.9403C56.8693 39.6449 56.3466 40.2443 55.7216 40.7386C55.0966 41.2273 54.3949 41.5994 53.6165 41.8551C52.8438 42.1108 52.017 42.2386 51.1364 42.2386C49.6477 42.2386 48.3239 41.875 47.1648 41.1477C46.0057 40.4205 45.0938 39.3864 44.429 38.0455C43.7642 36.7045 43.4318 35.1136 43.4318 33.2727C43.4318 31.4318 43.7642 29.8409 44.429 28.5C45.0938 27.1591 46.0057 26.125 47.1648 25.3977C48.3239 24.6705 49.6477 24.3068 51.1364 24.3068C52.017 24.3068 52.8438 24.4347 53.6165 24.6903C54.3949 24.946 55.0966 25.321 55.7216 25.8153C56.3466 26.304 56.8693 26.9006 57.2898 27.6051C57.7102 28.304 58 29.1023 58.1591 30ZM66.62 42.2727C65.4382 42.2727 64.4013 41.9915 63.5092 41.429C62.6229 40.8665 61.9297 40.0795 61.4297 39.0682C60.9354 38.0568 60.6882 36.875 60.6882 35.5227C60.6882 34.1591 60.9354 32.9687 61.4297 31.9517C61.9297 30.9347 62.6229 30.1449 63.5092 29.5824C64.4013 29.0199 65.4382 28.7386 66.62 28.7386C67.8018 28.7386 68.8359 29.0199 69.7223 29.5824C70.6143 30.1449 71.3075 30.9347 71.8018 31.9517C72.3018 32.9687 72.5518 34.1591 72.5518 35.5227C72.5518 36.875 72.3018 38.0568 71.8018 39.0682C71.3075 40.0795 70.6143 40.8665 69.7223 41.429C68.8359 41.9915 67.8018 42.2727 66.62 42.2727ZM66.62 40.4659C67.5178 40.4659 68.2564 40.2358 68.8359 39.7756C69.4155 39.3153 69.8445 38.7102 70.1229 37.9602C70.4013 37.2102 70.5405 36.3977 70.5405 35.5227C70.5405 34.6477 70.4013 33.8324 70.1229 33.0767C69.8445 32.321 69.4155 31.7102 68.8359 31.2443C68.2564 30.7784 67.5178 30.5455 66.62 30.5455C65.7223 30.5455 64.9837 30.7784 64.4041 31.2443C63.8246 31.7102 63.3956 32.321 63.1172 33.0767C62.8388 33.8324 62.6996 34.6477 62.6996 35.5227C62.6996 36.3977 62.8388 37.2102 63.1172 37.9602C63.3956 38.7102 63.8246 39.3153 64.4041 39.7756C64.9837 40.2358 65.7223 40.4659 66.62 40.4659ZM77.6335 34.125V42H75.6222V28.9091H77.5653V30.9545H77.7358C78.0426 30.2898 78.5085 29.7557 79.1335 29.3523C79.7585 28.9432 80.5653 28.7386 81.554 28.7386C82.4403 28.7386 83.2159 28.9205 83.8807 29.2841C84.5455 29.642 85.0625 30.1875 85.4318 30.9205C85.8011 31.6477 85.9858 32.5682 85.9858 33.6818V42H83.9744V33.8182C83.9744 32.7898 83.7074 31.9886 83.1733 31.4148C82.6392 30.8352 81.9063 30.5455 80.9744 30.5455C80.3324 30.5455 79.7585 30.6847 79.2528 30.9631C78.7528 31.2415 78.358 31.6477 78.0682 32.1818C77.7784 32.7159 77.6335 33.3636 77.6335 34.125ZM95.3544 28.9091V30.6136H88.5703V28.9091H95.3544ZM90.5476 25.7727H92.5589V38.25C92.5589 38.8182 92.6413 39.2443 92.8061 39.5284C92.9766 39.8068 93.1925 39.9943 93.4538 40.0909C93.7209 40.1818 94.0021 40.2273 94.2976 40.2273C94.5192 40.2273 94.701 40.2159 94.843 40.1932C94.9851 40.1648 95.0987 40.142 95.1839 40.125L95.593 41.9318C95.4567 41.983 95.2663 42.0341 95.022 42.0852C94.7777 42.142 94.468 42.1705 94.093 42.1705C93.5249 42.1705 92.968 42.0483 92.4226 41.804C91.8828 41.5597 91.4339 41.1875 91.076 40.6875C90.7237 40.1875 90.5476 39.5568 90.5476 38.7955V25.7727ZM102.232 42.3068C101.403 42.3068 100.65 42.1506 99.9737 41.8381C99.2976 41.5199 98.7607 41.0625 98.3629 40.4659C97.9652 39.8636 97.7663 39.1364 97.7663 38.2841C97.7663 37.5341 97.9141 36.9261 98.2095 36.4602C98.505 35.9886 98.8999 35.6193 99.3942 35.3523C99.8885 35.0852 100.434 34.8864 101.031 34.7557C101.633 34.6193 102.238 34.5114 102.846 34.4318C103.641 34.3295 104.286 34.2528 104.781 34.2017C105.281 34.1449 105.644 34.0511 105.871 33.9205C106.104 33.7898 106.221 33.5625 106.221 33.2386V33.1705C106.221 32.3295 105.991 31.6761 105.531 31.2102C105.076 30.7443 104.386 30.5114 103.46 30.5114C102.499 30.5114 101.746 30.7216 101.201 31.142C100.656 31.5625 100.272 32.0114 100.05 32.4886L98.1413 31.8068C98.4822 31.0114 98.9368 30.392 99.505 29.9489C100.079 29.5 100.704 29.1875 101.38 29.0114C102.062 28.8295 102.732 28.7386 103.391 28.7386C103.812 28.7386 104.295 28.7898 104.84 28.892C105.391 28.9886 105.923 29.1903 106.434 29.4972C106.951 29.804 107.38 30.267 107.721 30.8864C108.062 31.5057 108.232 32.3352 108.232 33.375V42H106.221V40.2273H106.119C105.982 40.5114 105.755 40.8153 105.437 41.1392C105.119 41.4631 104.695 41.7386 104.167 41.9659C103.638 42.1932 102.994 42.3068 102.232 42.3068ZM102.539 40.5C103.335 40.5 104.005 40.3438 104.55 40.0312C105.102 39.7188 105.516 39.3153 105.795 38.821C106.079 38.3267 106.221 37.8068 106.221 37.2614V35.4205C106.136 35.5227 105.948 35.6165 105.658 35.7017C105.374 35.7812 105.045 35.8523 104.67 35.9148C104.3 35.9716 103.94 36.0227 103.587 36.0682C103.241 36.108 102.96 36.142 102.744 36.1705C102.221 36.2386 101.732 36.3494 101.278 36.5028C100.829 36.6506 100.465 36.875 100.187 37.1761C99.9141 37.4716 99.7777 37.875 99.7777 38.3864C99.7777 39.0852 100.036 39.6136 100.553 39.9716C101.076 40.3239 101.738 40.5 102.539 40.5ZM117.222 42.2727C115.994 42.2727 114.938 41.983 114.051 41.4034C113.165 40.8239 112.483 40.0256 112.006 39.0085C111.528 37.9915 111.29 36.8295 111.29 35.5227C111.29 34.1932 111.534 33.0199 112.023 32.0028C112.517 30.9801 113.205 30.1818 114.085 29.608C114.972 29.0284 116.006 28.7386 117.188 28.7386C118.108 28.7386 118.938 28.9091 119.676 29.25C120.415 29.5909 121.02 30.0682 121.491 30.6818C121.963 31.2955 122.256 32.0114 122.369 32.8295H120.358C120.205 32.233 119.864 31.7045 119.335 31.2443C118.813 30.7784 118.108 30.5455 117.222 30.5455C116.438 30.5455 115.75 30.75 115.159 31.1591C114.574 31.5625 114.116 32.1335 113.787 32.8722C113.463 33.6051 113.301 34.4659 113.301 35.4545C113.301 36.4659 113.46 37.3466 113.778 38.0966C114.102 38.8466 114.557 39.429 115.142 39.8438C115.733 40.2585 116.426 40.4659 117.222 40.4659C117.744 40.4659 118.219 40.375 118.645 40.1932C119.071 40.0114 119.432 39.75 119.727 39.4091C120.023 39.0682 120.233 38.6591 120.358 38.1818H122.369C122.256 38.9545 121.974 39.6506 121.526 40.2699C121.082 40.8835 120.494 41.3722 119.761 41.7358C119.034 42.0938 118.188 42.2727 117.222 42.2727ZM131.003 28.9091V30.6136H124.219V28.9091H131.003ZM126.196 25.7727H128.207V38.25C128.207 38.8182 128.29 39.2443 128.455 39.5284C128.625 39.8068 128.841 39.9943 129.102 40.0909C129.369 40.1818 129.651 40.2273 129.946 40.2273C130.168 40.2273 130.349 40.2159 130.491 40.1932C130.634 40.1648 130.747 40.142 130.832 40.125L131.241 41.9318C131.105 41.983 130.915 42.0341 130.67 42.0852C130.426 42.142 130.116 42.1705 129.741 42.1705C129.173 42.1705 128.616 42.0483 128.071 41.804C127.531 41.5597 127.082 41.1875 126.724 40.6875C126.372 40.1875 126.196 39.5568 126.196 38.7955V25.7727Z" fill="#042F4D"/>
</g>
<defs>
<filter id="filter0_dd_14_12" x="0" y="0" width="175" height="96" filterUnits="userSpaceOnUse" color-interpolation-filters="sRGB">
<feFlood flood-opacity="0" result="BackgroundImageFix"/>
<feColorMatrix in="SourceAlpha" type="matrix" values="0 0 0 0 0 0 0 0 0 0 0 0 0 0 0 0 0 0 127 0" result="hardAlpha"/>
<feMorphology radius="6" operator="erode" in="SourceAlpha" result="effect1_dropShadow_14_12"/>
<feOffset dy="6"/>
<feGaussianBlur stdDeviation="4.5"/>
<feComposite in2="hardAlpha" operator="out"/>
<feColorMatrix type="matrix" values="0 0 0 0 0 0 0 0 0 0 0 0 0 0 0 0 0 0 0.1 0"/>
<feBlend mode="normal" in2="BackgroundImageFix" result="effect1_dropShadow_14_12"/>
<feColorMatrix in="SourceAlpha" type="matrix" values="0 0 0 0 0 0 0 0 0 0 0 0 0 0 0 0 0 0 127 0" result="hardAlpha"/>
<feMorphology radius="4.5" operator="erode" in="SourceAlpha" result="effect2_dropShadow_14_12"/>
<feOffset dy="15"/>
<feGaussianBlur stdDeviation="11.25"/>
<feComposite in2="hardAlpha" operator="out"/>
<feColorMatrix type="matrix" values="0 0 0 0 0 0 0 0 0 0 0 0 0 0 0 0 0 0 0.1 0"/>
<feBlend mode="normal" in2="effect1_dropShadow_14_12" result="effect2_dropShadow_14_12"/>
<feBlend mode="normal" in="SourceGraphic" in2="effect2_dropShadow_14_12" result="shape"/>
</filter>
</defs>
</svg>
