<svg width="151" height="96" viewBox="0 0 151 96" fill="none" xmlns="http://www.w3.org/2000/svg">
<g filter="url(#filter0_dd_4_178)">
<path d="M18 33C18 16.4315 31.4315 3 48 3H103C119.569 3 133 16.4315 133 33C133 49.5685 119.569 63 103 63H48C31.4315 63 18 49.5685 18 33Z" fill="#EFF9FF"/>
<path d="M48 3.75H103C119.154 3.75 132.25 16.8457 132.25 33C132.25 49.1543 119.154 62.25 103 62.25H48C31.8457 62.25 18.75 49.1543 18.75 33C18.75 16.8457 31.8457 3.75 48 3.75Z" stroke="#00A6F4" stroke-width="1.5"/>
<path d="M44.1136 42V24.5455H46.2273V32.3182H55.5341V24.5455H57.6477V42H55.5341V34.1932H46.2273V42H44.1136ZM66.9247 42.2727C65.7429 42.2727 64.706 41.9915 63.8139 41.429C62.9276 40.8665 62.2344 40.0795 61.7344 39.0682C61.2401 38.0568 60.9929 36.875 60.9929 35.5227C60.9929 34.1591 61.2401 32.9687 61.7344 31.9517C62.2344 30.9347 62.9276 30.1449 63.8139 29.5824C64.706 29.0199 65.7429 28.7386 66.9247 28.7386C68.1065 28.7386 69.1406 29.0199 70.027 29.5824C70.919 30.1449 71.6122 30.9347 72.1065 31.9517C72.6065 32.9687 72.8565 34.1591 72.8565 35.5227C72.8565 36.875 72.6065 38.0568 72.1065 39.0682C71.6122 40.0795 70.919 40.8665 70.027 41.429C69.1406 41.9915 68.1065 42.2727 66.9247 42.2727ZM66.9247 40.4659C67.8224 40.4659 68.5611 40.2358 69.1406 39.7756C69.7202 39.3153 70.1491 38.7102 70.4276 37.9602C70.706 37.2102 70.8452 36.3977 70.8452 35.5227C70.8452 34.6477 70.706 33.8324 70.4276 33.0767C70.1491 32.321 69.7202 31.7102 69.1406 31.2443C68.5611 30.7784 67.8224 30.5455 66.9247 30.5455C66.027 30.5455 65.2884 30.7784 64.7088 31.2443C64.1293 31.7102 63.7003 32.321 63.4219 33.0767C63.1435 33.8324 63.0043 34.6477 63.0043 35.5227C63.0043 36.3977 63.1435 37.2102 63.4219 37.9602C63.7003 38.7102 64.1293 39.3153 64.7088 39.7756C65.2884 40.2358 66.027 40.4659 66.9247 40.4659ZM75.9268 42V28.9091H77.87V30.9545H78.0405C78.3132 30.2557 78.7536 29.7131 79.3615 29.3267C79.9695 28.9347 80.6996 28.7386 81.5518 28.7386C82.4155 28.7386 83.1342 28.9347 83.7081 29.3267C84.2876 29.7131 84.7393 30.2557 85.0632 30.9545H85.1996C85.5348 30.2784 86.0376 29.7415 86.7081 29.3438C87.3786 28.9403 88.1825 28.7386 89.12 28.7386C90.2905 28.7386 91.2479 29.1051 91.9922 29.8381C92.7365 30.5653 93.1087 31.6989 93.1087 33.2386V42H91.0973V33.2386C91.0973 32.2727 90.8331 31.5824 90.3047 31.1676C89.7763 30.7528 89.1541 30.5455 88.4382 30.5455C87.5178 30.5455 86.8047 30.8239 86.299 31.3807C85.7933 31.9318 85.5405 32.6307 85.5405 33.4773V42H83.495V33.0341C83.495 32.2898 83.2536 31.6903 82.7706 31.2358C82.2876 30.7756 81.6655 30.5455 80.9041 30.5455C80.3814 30.5455 79.8928 30.6847 79.4382 30.9631C78.9893 31.2415 78.6257 31.6278 78.3473 32.1222C78.0746 32.6108 77.9382 33.1761 77.9382 33.8182V42H75.9268ZM102.275 42.2727C101.013 42.2727 99.9254 41.9943 99.0107 41.4375C98.1016 40.875 97.3999 40.0909 96.9055 39.0852C96.4169 38.0739 96.1726 36.8977 96.1726 35.5568C96.1726 34.2159 96.4169 33.0341 96.9055 32.0114C97.3999 30.983 98.0874 30.1818 98.968 29.608C99.8544 29.0284 100.888 28.7386 102.07 28.7386C102.752 28.7386 103.425 28.8523 104.09 29.0795C104.755 29.3068 105.36 29.6761 105.906 30.1875C106.451 30.6932 106.886 31.3636 107.21 32.1989C107.533 33.0341 107.695 34.0625 107.695 35.2841V36.1364H97.6044V34.3977H105.65C105.65 33.6591 105.502 33 105.207 32.4205C104.917 31.8409 104.502 31.3835 103.962 31.0483C103.428 30.7131 102.798 30.5455 102.07 30.5455C101.269 30.5455 100.576 30.7443 99.9908 31.142C99.4112 31.5341 98.9652 32.0455 98.6527 32.6761C98.3402 33.3068 98.1839 33.983 98.1839 34.7045V35.8636C98.1839 36.8523 98.3544 37.6903 98.6953 38.3778C99.0419 39.0597 99.522 39.5795 100.136 39.9375C100.749 40.2898 101.462 40.4659 102.275 40.4659C102.803 40.4659 103.281 40.392 103.707 40.2443C104.138 40.0909 104.511 39.8636 104.823 39.5625C105.136 39.2557 105.377 38.875 105.548 38.4205L107.491 38.9659C107.286 39.625 106.942 40.2045 106.46 40.7045C105.977 41.1989 105.38 41.5852 104.67 41.8636C103.96 42.1364 103.161 42.2727 102.275 42.2727Z" fill="#042F4D"/>
</g>
<defs>
<filter id="filter0_dd_4_178" x="0" y="0" width="151" height="96" filterUnits="userSpaceOnUse" color-interpolation-filters="sRGB">
<feFlood flood-opacity="0" result="BackgroundImageFix"/>
<feColorMatrix in="SourceAlpha" type="matrix" values="0 0 0 0 0 0 0 0 0 0 0 0 0 0 0 0 0 0 127 0" result="hardAlpha"/>
<feMorphology radius="6" operator="erode" in="SourceAlpha" result="effect1_dropShadow_4_178"/>
<feOffset dy="6"/>
<feGaussianBlur stdDeviation="4.5"/>
<feComposite in2="hardAlpha" operator="out"/>
<feColorMatrix type="matrix" values="0 0 0 0 0 0 0 0 0 0 0 0 0 0 0 0 0 0 0.1 0"/>
<feBlend mode="normal" in2="BackgroundImageFix" result="effect1_dropShadow_4_178"/>
<feColorMatrix in="SourceAlpha" type="matrix" values="0 0 0 0 0 0 0 0 0 0 0 0 0 0 0 0 0 0 127 0" result="hardAlpha"/>
<feMorphology radius="4.5" operator="erode" in="SourceAlpha" result="effect2_dropShadow_4_178"/>
<feOffset dy="15"/>
<feGaussianBlur stdDeviation="11.25"/>
<feComposite in2="hardAlpha" operator="out"/>
<feColorMatrix type="matrix" values="0 0 0 0 0 0 0 0 0 0 0 0 0 0 0 0 0 0 0.1 0"/>
<feBlend mode="normal" in2="effect1_dropShadow_4_178" result="effect2_dropShadow_4_178"/>
<feBlend mode="normal" in="SourceGraphic" in2="effect2_dropShadow_4_178" result="shape"/>
</filter>
</defs>
</svg>
